# xmcd
#
# Track frame offsets: 
#        150
#        12801
#        25318
#        40053
#        58824
#        67686
#        81562
#        95885
#        108102
#        118590
#        139484
#        150644
#        167262
#        178167
#        192125
#        208396
#        221022
#        234225
#
# Disc length: 3351 seconds
#
# Revision: 4
# Processed by: cddbd v1.5.1PL0 Copyright (c) Steve Scherf et al.
# Submitted via: ExactAudioCopy v0.95a5
#
DISCID=f90d1512
DTITLE=Various Artist - Jazz and Blues Collection Complete CD 5
DYEAR=1900
DGENRE=
TTITLE0=Dinah Washington - Mad About The Boy
TTITLE1=Sarah Vaughan - My Favourite Things
TTITLE2=Astrud Gilberto - The Girl From Ipanema
TTITLE3=Nina Simone - I Loves You Porgy
TTITLE4=Ella Fitzgerald - Lover Come Back To Me
TTITLE5=Lena Horne - More Than You Know
TTITLE6=Sarah Vaughan - Summertime
TTITLE7=Dinah Washington - Do Nothing Till You Hear From Me
TTITLE8=Ella Fitzgerald - I Can't Give You Anything But Love
TTITLE9=Nina Simone - Mississippi Goddamn
TTITLE10=Ella Fitzgerald - That Old Black Magic
TTITLE11=Astrud Gilberto - Meu Piao
TTITLE12=Sarah Vaughan - I Cried For You
TTITLE13=Ella Fitzgerald - You'll Never Know
TTITLE14=Nina Simone - My Baby Just Cares For Me
TTITLE15=Dinah Washington - Ain't Misbehavin'
TTITLE16=Sarah Vaughan - Body And Soul
TTITLE17=Nina Simone - Don't Let Me Be Misunderstood
EXTD=
EXTT0=
EXTT1=
EXTT2=
EXTT3=
EXTT4=
EXTT5=
EXTT6=
EXTT7=
EXTT8=
EXTT9=
EXTT10=
EXTT11=
EXTT12=
EXTT13=
EXTT14=
EXTT15=
EXTT16=
EXTT17=
PLAYORDER=
